<?xml version="1.0" standalone="no"?>
<!DOCTYPE svg PUBLIC "-//W3C//DTD SVG 20010904//EN"
 "http://www.w3.org/TR/2001/REC-SVG-20010904/DTD/svg10.dtd">
<svg version="1.0" xmlns="http://www.w3.org/2000/svg"
 width="512.000000pt" height="512.000000pt" viewBox="0 0 512.000000 512.000000"
 preserveAspectRatio="xMidYMid meet">
<metadata>
Created by potrace 1.14, written by Peter Selinger 2001-2017
</metadata>
<g transform="translate(0.000000,512.000000) scale(0.100000,-0.100000)"
fill="#000000" stroke="none">
<path d="M2320 5029 c-121 -15 -155 -20 -170 -24 -8 -2 -31 -6 -51 -9 -246
-36 -599 -175 -863 -339 -35 -21 -195 -136 -223 -160 -250 -210 -416 -398
-565 -639 -69 -111 -157 -288 -199 -401 -17 -45 -37 -99 -45 -120 -17 -46 -68
-248 -84 -332 -38 -205 -48 -579 -20 -760 7 -44 13 -170 15 -280 2 -110 5
-211 9 -225 3 -14 7 -50 10 -80 3 -30 7 -65 10 -76 2 -12 7 -38 10 -58 51
-318 184 -691 354 -991 76 -134 58 -125 255 -125 103 0 185 5 209 12 36 11
118 77 118 96 0 4 4 13 9 20 6 11 19 6 57 -21 312 -223 714 -372 1134 -422
100 -11 485 -13 540 -2 23 5 99 14 179 22 79 8 352 92 494 151 167 71 351 172
504 281 33 23 91 58 129 78 144 78 212 114 309 165 55 29 132 70 170 90 39 20
113 59 165 86 147 76 215 154 223 258 10 107 -79 225 -186 250 l-27 6 19 38
c18 35 62 141 94 228 15 39 64 213 72 254 2 11 6 23 8 28 3 4 8 30 11 57 4 28
9 59 12 70 5 23 11 71 23 175 13 112 5 449 -13 574 -25 167 -68 345 -115 474
l-19 52 32 82 c18 46 46 135 62 198 25 101 29 132 29 260 -1 155 -10 216 -55
345 -98 284 -319 509 -615 626 -40 15 -122 40 -151 44 -114 17 -150 20 -234
19 -146 -2 -305 -41 -430 -105 l-56 -28 -100 34 c-91 31 -257 77 -329 90 -16
2 -41 7 -55 9 -157 29 -520 42 -660 25z"/>
</g>
</svg>
